# xmcd CD database file
#
# Track frame offsets:
#	150
#	13562
#	27320
#	45167
#	60655
#	75865
#	94500
#	109882
#	122895
#	137550
#	155232
#	169952
#	187845
#	205355
#	218715
#	233092
#	247397
#	273580
#	292950
#
# Disc length: 4213 seconds
#
# Revision: 3
# Processed by: cddbd v1.5.2PL0 Copyright (c) Steve Scherf et al.
# Submitted via: CDex 1.70beta3
#
DISCID=08107313
DTITLE=影山ヒロノブ - Eternity [CD4]
DYEAR=1997
DGENRE=Anime
TTITLE0=電撃戦対チェンジマン
TTITLE1=NEVER STOP チェンジマン
TTITLE2=ファイト！チェンジロボ
TTITLE3=光戦隊マスクマン
TTITLE4=愛のソルジャー
TTITLE5=燃えるぜファイヤー
TTITLE6=オーラに輝け！グレートファイブ
TTITLE7=五つの心でファイブロボ
TTITLE8=鳥人戦隊ジェットマン
TTITLE9=こころはタマゴ
TTITLE10=時を駆けて
TTITLE11=ジェットイカロス無敵ロボ！
TTITLE12=ジェットガルーダ鳥のロボ
TTITLE13=あいつが正しいヤキソバン
TTITLE14=戦うために生まれた戦士
TTITLE15=おれはガンマン〜ガンギブソンのテーマ〜
TTITLE16=紫狼（パープルウルフ）伝説
TTITLE17=出たぞ！隠大将軍!!
TTITLE18=IT WAS 30 YEARS AGO
EXTD=YEAR: 1997
EXTT0=
EXTT1=
EXTT2=
EXTT3=
EXTT4=
EXTT5=
EXTT6=
EXTT7=
EXTT8=
EXTT9=
EXTT10=
EXTT11=
EXTT12=
EXTT13=
EXTT14=
EXTT15=
EXTT16=
EXTT17=
EXTT18=
PLAYORDER=
